<svg xmlns="http://www.w3.org/2000/svg" version="1.1" xmlns:xlink="http://www.w3.org/1999/xlink" xmlns:svgjs="http://svgjs.dev/svgjs" width="1440" height="560" preserveAspectRatio="none" viewBox="0 0 1440 560"><g mask="url(&quot;#SvgjsMask1005&quot;)" fill="none"><path d="M42.3 -40.12L107.25 -2.62L107.25 72.38L42.3 109.88L-22.65 72.38L-22.65 -2.62zM107.25 72.38L172.21 109.88L172.21 184.88L107.25 222.38L42.3 184.88L42.3 109.88zM42.3 184.88L107.25 222.38L107.25 297.38L42.3 334.88L-22.65 297.38L-22.65 222.38zM42.3 409.88L107.25 447.38L107.25 522.38L42.3 559.88L-22.65 522.38L-22.65 447.38zM172.21 -40.12L237.16 -2.62L237.16 72.38L172.21 109.88L107.25 72.38L107.25 -2.62zM302.12 409.88L367.07 447.38L367.07 522.38L302.12 559.88L237.16 522.38L237.16 447.38zM496.98 72.38L561.93 109.88L561.93 184.88L496.98 222.38L432.02 184.88L432.02 109.88zM561.93 -40.12L626.88 -2.62L626.88 72.38L561.93 109.88L496.98 72.38L496.98 -2.62zM756.79 522.38L821.75 559.88L821.75 634.88L756.79 672.38L691.84 634.88L691.84 559.88zM821.74 -40.12L886.7 -2.62L886.7 72.38L821.74 109.88L756.79 72.38L756.79 -2.62zM951.65 409.88L1016.61 447.38L1016.61 522.38L951.65 559.88L886.7 522.38L886.7 447.38zM1081.56 184.88L1146.51 222.38L1146.51 297.38L1081.56 334.88L1016.61 297.38L1016.61 222.38zM1081.56 409.88L1146.51 447.38L1146.51 522.38L1081.56 559.88L1016.61 522.38L1016.61 447.38zM1211.47 -40.12L1276.42 -2.62L1276.42 72.38L1211.47 109.88L1146.51 72.38L1146.51 -2.62zM1406.33 297.38L1471.28 334.88L1471.28 409.88L1406.33 447.38L1341.38 409.88L1341.38 334.88zM1471.28 -40.12L1536.24 -2.62L1536.24 72.38L1471.28 109.88L1406.33 72.38L1406.33 -2.62zM1536.24 297.38L1601.19 334.88L1601.19 409.88L1536.24 447.38L1471.28 409.88L1471.28 334.88z" stroke="rgba(0, 0, 0, 0)" stroke-width="2"></path><path d="M34.8 -40.12 a7.5 7.5 0 1 0 15 0 a7.5 7.5 0 1 0 -15 0zM99.75 -2.62 a7.5 7.5 0 1 0 15 0 a7.5 7.5 0 1 0 -15 0zM99.75 72.38 a7.5 7.5 0 1 0 15 0 a7.5 7.5 0 1 0 -15 0zM34.8 109.88 a7.5 7.5 0 1 0 15 0 a7.5 7.5 0 1 0 -15 0zM-30.15 72.38 a7.5 7.5 0 1 0 15 0 a7.5 7.5 0 1 0 -15 0zM-30.15 -2.62 a7.5 7.5 0 1 0 15 0 a7.5 7.5 0 1 0 -15 0zM164.71 109.88 a7.5 7.5 0 1 0 15 0 a7.5 7.5 0 1 0 -15 0zM164.71 184.88 a7.5 7.5 0 1 0 15 0 a7.5 7.5 0 1 0 -15 0zM99.75 222.38 a7.5 7.5 0 1 0 15 0 a7.5 7.5 0 1 0 -15 0zM34.8 184.88 a7.5 7.5 0 1 0 15 0 a7.5 7.5 0 1 0 -15 0zM99.75 297.38 a7.5 7.5 0 1 0 15 0 a7.5 7.5 0 1 0 -15 0zM34.8 334.88 a7.5 7.5 0 1 0 15 0 a7.5 7.5 0 1 0 -15 0zM-30.15 297.38 a7.5 7.5 0 1 0 15 0 a7.5 7.5 0 1 0 -15 0zM-30.15 222.38 a7.5 7.5 0 1 0 15 0 a7.5 7.5 0 1 0 -15 0zM34.8 409.88 a7.5 7.5 0 1 0 15 0 a7.5 7.5 0 1 0 -15 0zM99.75 447.38 a7.5 7.5 0 1 0 15 0 a7.5 7.5 0 1 0 -15 0zM99.75 522.38 a7.5 7.5 0 1 0 15 0 a7.5 7.5 0 1 0 -15 0zM34.8 559.88 a7.5 7.5 0 1 0 15 0 a7.5 7.5 0 1 0 -15 0zM-30.15 522.38 a7.5 7.5 0 1 0 15 0 a7.5 7.5 0 1 0 -15 0zM-30.15 447.38 a7.5 7.5 0 1 0 15 0 a7.5 7.5 0 1 0 -15 0zM164.71 -40.12 a7.5 7.5 0 1 0 15 0 a7.5 7.5 0 1 0 -15 0zM229.66 -2.62 a7.5 7.5 0 1 0 15 0 a7.5 7.5 0 1 0 -15 0zM229.66 72.38 a7.5 7.5 0 1 0 15 0 a7.5 7.5 0 1 0 -15 0zM294.62 409.88 a7.5 7.5 0 1 0 15 0 a7.5 7.5 0 1 0 -15 0zM359.57 447.38 a7.5 7.5 0 1 0 15 0 a7.5 7.5 0 1 0 -15 0zM359.57 522.38 a7.5 7.5 0 1 0 15 0 a7.5 7.5 0 1 0 -15 0zM294.62 559.88 a7.5 7.5 0 1 0 15 0 a7.5 7.5 0 1 0 -15 0zM229.66 522.38 a7.5 7.5 0 1 0 15 0 a7.5 7.5 0 1 0 -15 0zM229.66 447.38 a7.5 7.5 0 1 0 15 0 a7.5 7.5 0 1 0 -15 0zM489.48 72.38 a7.5 7.5 0 1 0 15 0 a7.5 7.5 0 1 0 -15 0zM554.43 109.88 a7.5 7.5 0 1 0 15 0 a7.5 7.5 0 1 0 -15 0zM554.43 184.88 a7.5 7.5 0 1 0 15 0 a7.5 7.5 0 1 0 -15 0zM489.48 222.38 a7.5 7.5 0 1 0 15 0 a7.5 7.5 0 1 0 -15 0zM424.52 184.88 a7.5 7.5 0 1 0 15 0 a7.5 7.5 0 1 0 -15 0zM424.52 109.88 a7.5 7.5 0 1 0 15 0 a7.5 7.5 0 1 0 -15 0zM554.43 -40.12 a7.5 7.5 0 1 0 15 0 a7.5 7.5 0 1 0 -15 0zM619.38 -2.62 a7.5 7.5 0 1 0 15 0 a7.5 7.5 0 1 0 -15 0zM619.38 72.38 a7.5 7.5 0 1 0 15 0 a7.5 7.5 0 1 0 -15 0zM489.48 -2.62 a7.5 7.5 0 1 0 15 0 a7.5 7.5 0 1 0 -15 0zM749.29 522.38 a7.5 7.5 0 1 0 15 0 a7.5 7.5 0 1 0 -15 0zM814.25 559.88 a7.5 7.5 0 1 0 15 0 a7.5 7.5 0 1 0 -15 0zM814.25 634.88 a7.5 7.5 0 1 0 15 0 a7.5 7.5 0 1 0 -15 0zM749.29 672.38 a7.5 7.5 0 1 0 15 0 a7.5 7.5 0 1 0 -15 0zM684.34 634.88 a7.5 7.5 0 1 0 15 0 a7.5 7.5 0 1 0 -15 0zM684.34 559.88 a7.5 7.5 0 1 0 15 0 a7.5 7.5 0 1 0 -15 0zM814.24 -40.12 a7.5 7.5 0 1 0 15 0 a7.5 7.5 0 1 0 -15 0zM879.2 -2.62 a7.5 7.5 0 1 0 15 0 a7.5 7.5 0 1 0 -15 0zM879.2 72.38 a7.5 7.5 0 1 0 15 0 a7.5 7.5 0 1 0 -15 0zM814.24 109.88 a7.5 7.5 0 1 0 15 0 a7.5 7.5 0 1 0 -15 0zM749.29 72.38 a7.5 7.5 0 1 0 15 0 a7.5 7.5 0 1 0 -15 0zM749.29 -2.62 a7.5 7.5 0 1 0 15 0 a7.5 7.5 0 1 0 -15 0zM944.15 409.88 a7.5 7.5 0 1 0 15 0 a7.5 7.5 0 1 0 -15 0zM1009.11 447.38 a7.5 7.5 0 1 0 15 0 a7.5 7.5 0 1 0 -15 0zM1009.11 522.38 a7.5 7.5 0 1 0 15 0 a7.5 7.5 0 1 0 -15 0zM944.15 559.88 a7.5 7.5 0 1 0 15 0 a7.5 7.5 0 1 0 -15 0zM879.2 522.38 a7.5 7.5 0 1 0 15 0 a7.5 7.5 0 1 0 -15 0zM879.2 447.38 a7.5 7.5 0 1 0 15 0 a7.5 7.5 0 1 0 -15 0zM1074.06 184.88 a7.5 7.5 0 1 0 15 0 a7.5 7.5 0 1 0 -15 0zM1139.01 222.38 a7.5 7.5 0 1 0 15 0 a7.5 7.5 0 1 0 -15 0zM1139.01 297.38 a7.5 7.5 0 1 0 15 0 a7.5 7.5 0 1 0 -15 0zM1074.06 334.88 a7.5 7.5 0 1 0 15 0 a7.5 7.5 0 1 0 -15 0zM1009.11 297.38 a7.5 7.5 0 1 0 15 0 a7.5 7.5 0 1 0 -15 0zM1009.11 222.38 a7.5 7.5 0 1 0 15 0 a7.5 7.5 0 1 0 -15 0zM1074.06 409.88 a7.5 7.5 0 1 0 15 0 a7.5 7.5 0 1 0 -15 0zM1139.01 447.38 a7.5 7.5 0 1 0 15 0 a7.5 7.5 0 1 0 -15 0zM1139.01 522.38 a7.5 7.5 0 1 0 15 0 a7.5 7.5 0 1 0 -15 0zM1074.06 559.88 a7.5 7.5 0 1 0 15 0 a7.5 7.5 0 1 0 -15 0zM1203.97 -40.12 a7.5 7.5 0 1 0 15 0 a7.5 7.5 0 1 0 -15 0zM1268.92 -2.62 a7.5 7.5 0 1 0 15 0 a7.5 7.5 0 1 0 -15 0zM1268.92 72.38 a7.5 7.5 0 1 0 15 0 a7.5 7.5 0 1 0 -15 0zM1203.97 109.88 a7.5 7.5 0 1 0 15 0 a7.5 7.5 0 1 0 -15 0zM1139.01 72.38 a7.5 7.5 0 1 0 15 0 a7.5 7.5 0 1 0 -15 0zM1139.01 -2.62 a7.5 7.5 0 1 0 15 0 a7.5 7.5 0 1 0 -15 0zM1398.83 297.38 a7.5 7.5 0 1 0 15 0 a7.5 7.5 0 1 0 -15 0zM1463.78 334.88 a7.5 7.5 0 1 0 15 0 a7.5 7.5 0 1 0 -15 0zM1463.78 409.88 a7.5 7.5 0 1 0 15 0 a7.5 7.5 0 1 0 -15 0zM1398.83 447.38 a7.5 7.5 0 1 0 15 0 a7.5 7.5 0 1 0 -15 0zM1333.88 409.88 a7.5 7.5 0 1 0 15 0 a7.5 7.5 0 1 0 -15 0zM1333.88 334.88 a7.5 7.5 0 1 0 15 0 a7.5 7.5 0 1 0 -15 0zM1463.78 -40.12 a7.5 7.5 0 1 0 15 0 a7.5 7.5 0 1 0 -15 0zM1528.74 -2.62 a7.5 7.5 0 1 0 15 0 a7.5 7.5 0 1 0 -15 0zM1528.74 72.38 a7.5 7.5 0 1 0 15 0 a7.5 7.5 0 1 0 -15 0zM1463.78 109.88 a7.5 7.5 0 1 0 15 0 a7.5 7.5 0 1 0 -15 0zM1398.83 72.38 a7.5 7.5 0 1 0 15 0 a7.5 7.5 0 1 0 -15 0zM1398.83 -2.62 a7.5 7.5 0 1 0 15 0 a7.5 7.5 0 1 0 -15 0zM1528.74 297.38 a7.5 7.5 0 1 0 15 0 a7.5 7.5 0 1 0 -15 0zM1593.69 334.88 a7.5 7.5 0 1 0 15 0 a7.5 7.5 0 1 0 -15 0zM1593.69 409.88 a7.5 7.5 0 1 0 15 0 a7.5 7.5 0 1 0 -15 0zM1528.74 447.38 a7.5 7.5 0 1 0 15 0 a7.5 7.5 0 1 0 -15 0z" fill="rgba(0, 0, 0, 0)"></path><path d="M5.25 -37.06L48.55 -12.06L48.55 37.94L5.25 62.94L-38.05 37.94L-38.05 -12.06zM48.55 337.94L91.86 362.94L91.86 412.94L48.55 437.94L5.25 412.94L5.25 362.94zM5.25 412.94L48.55 437.94L48.55 487.94L5.25 512.94L-38.05 487.94L-38.05 437.94zM48.55 487.94L91.86 512.94L91.86 562.94L48.55 587.94L5.25 562.94L5.25 512.94zM91.86 -37.06L135.16 -12.06L135.16 37.94L91.86 62.94L48.55 37.94L48.55 -12.06zM178.46 112.94L221.76 137.94L221.76 187.94L178.46 212.94L135.16 187.94L135.16 137.94zM221.76 487.94L265.06 512.94L265.06 562.94L221.76 587.94L178.46 562.94L178.46 512.94zM265.06 112.94L308.37 137.94L308.37 187.94L265.06 212.94L221.76 187.94L221.76 137.94zM265.06 262.94L308.37 287.94L308.37 337.94L265.06 362.94L221.76 337.94L221.76 287.94zM265.06 412.94L308.37 437.94L308.37 487.94L265.06 512.94L221.76 487.94L221.76 437.94zM394.97 487.94L438.28 512.94L438.28 562.94L394.97 587.94L351.67 562.94L351.67 512.94zM438.28 -37.06L481.58 -12.06L481.58 37.94L438.28 62.94L394.97 37.94L394.97 -12.06zM438.28 112.94L481.58 137.94L481.58 187.94L438.28 212.94L394.97 187.94L394.97 137.94zM438.28 262.94L481.58 287.94L481.58 337.94L438.28 362.94L394.97 337.94L394.97 287.94zM481.58 337.94L524.88 362.94L524.88 412.94L481.58 437.94L438.28 412.94L438.28 362.94zM568.18 487.94L611.49 512.94L611.49 562.94L568.18 587.94L524.88 562.94L524.88 512.94zM611.49 412.94L654.79 437.94L654.79 487.94L611.49 512.94L568.18 487.94L568.18 437.94zM741.39 37.94L784.7 62.94L784.7 112.94L741.39 137.94L698.09 112.94L698.09 62.94zM741.39 337.94L784.7 362.94L784.7 412.94L741.39 437.94L698.09 412.94L698.09 362.94zM698.09 412.94L741.39 437.94L741.39 487.94L698.09 512.94L654.79 487.94L654.79 437.94zM828 37.94L871.3 62.94L871.3 112.94L828 137.94L784.7 112.94L784.7 62.94zM784.7 112.94L828 137.94L828 187.94L784.7 212.94L741.39 187.94L741.39 137.94zM784.7 412.94L828 437.94L828 487.94L784.7 512.94L741.39 487.94L741.39 437.94zM914.6 37.94L957.91 62.94L957.91 112.94L914.6 137.94L871.3 112.94L871.3 62.94zM914.6 187.94L957.91 212.94L957.91 262.94L914.6 287.94L871.3 262.94L871.3 212.94zM914.6 487.94L957.91 512.94L957.91 562.94L914.6 587.94L871.3 562.94L871.3 512.94zM957.91 112.94L1001.21 137.94L1001.21 187.94L957.91 212.94L914.6 187.94L914.6 137.94zM1001.21 187.94L1044.51 212.94L1044.51 262.94L1001.21 287.94L957.91 262.94L957.91 212.94zM1087.81 187.94L1131.12 212.94L1131.12 262.94L1087.81 287.94L1044.51 262.94L1044.51 212.94zM1044.51 262.94L1087.81 287.94L1087.81 337.94L1044.51 362.94L1001.21 337.94L1001.21 287.94zM1087.81 337.94L1131.12 362.94L1131.12 412.94L1087.81 437.94L1044.51 412.94L1044.51 362.94zM1087.81 487.94L1131.12 512.94L1131.12 562.94L1087.81 587.94L1044.51 562.94L1044.51 512.94zM1131.12 -37.06L1174.42 -12.06L1174.42 37.94L1131.12 62.94L1087.81 37.94L1087.81 -12.06zM1131.12 262.94L1174.42 287.94L1174.42 337.94L1131.12 362.94L1087.81 337.94L1087.81 287.94zM1261.02 37.94L1304.33 62.94L1304.33 112.94L1261.02 137.94L1217.72 112.94L1217.72 62.94zM1261.02 187.94L1304.33 212.94L1304.33 262.94L1261.02 287.94L1217.72 262.94L1217.72 212.94zM1261.02 487.94L1304.33 512.94L1304.33 562.94L1261.02 587.94L1217.72 562.94L1217.72 512.94zM1347.63 187.94L1390.93 212.94L1390.93 262.94L1347.63 287.94L1304.33 262.94L1304.33 212.94zM1390.93 -37.06L1434.23 -12.06L1434.23 37.94L1390.93 62.94L1347.63 37.94L1347.63 -12.06zM1434.23 187.94L1477.54 212.94L1477.54 262.94L1434.23 287.94L1390.93 262.94L1390.93 212.94zM1390.93 262.94L1434.23 287.94L1434.23 337.94L1390.93 362.94L1347.63 337.94L1347.63 287.94z" stroke="rgba(255, 255, 255, 0.93)" stroke-width="2"></path></g><defs><mask id="SvgjsMask1005"><rect width="1440" height="560" fill="#ffffff"></rect></mask></defs></svg>